<?xml version="1.0" encoding="UTF-8" standalone="no"?>
<!-- Created with Inkscape (http://www.inkscape.org/) -->

<svg
   width="48.069187mm"
   height="15.180164mm"
   viewBox="0 0 48.069187 15.180164"
   version="1.1"
   id="svg1"
   xml:space="preserve"
   sodipodi:docname="logoBlanc.svg"
   inkscape:version="1.4 (86a8ad7, 2024-10-11)"
   xmlns:inkscape="http://www.inkscape.org/namespaces/inkscape"
   xmlns:sodipodi="http://sodipodi.sourceforge.net/DTD/sodipodi-0.dtd"
   xmlns="http://www.w3.org/2000/svg"
   xmlns:svg="http://www.w3.org/2000/svg"><sodipodi:namedview
     id="namedview1"
     pagecolor="#ffffff"
     bordercolor="#FF0000"
     borderopacity="0.25"
     inkscape:showpageshadow="2"
     inkscape:pageopacity="0.0"
     inkscape:pagecheckerboard="0"
     inkscape:deskcolor="#d1d1d1"
     inkscape:document-units="mm"
     inkscape:zoom="4.8877465"
     inkscape:cx="87.77051"
     inkscape:cy="41.634729"
     inkscape:window-width="1920"
     inkscape:window-height="1017"
     inkscape:window-x="1912"
     inkscape:window-y="-8"
     inkscape:window-maximized="1"
     inkscape:current-layer="svg1" /><defs
     id="defs1"><linearGradient
       id="swatch1"><stop
         style="stop-color:#30bcde;stop-opacity:1;"
         offset="0"
         id="stop1" /></linearGradient></defs><g
     inkscape:groupmode="layer"
     id="layer3"
     inkscape:label="Layer 1" /><g
     id="layer1"
     transform="translate(-2.418582,-2.723207)"><path
       style="display:inline;fill:#ffffff;fill-opacity:0.62406;stroke:none;stroke-width:0.264583px;stroke-linecap:butt;stroke-linejoin:miter;stroke-opacity:1"
       d="M 13.369555,10.78447 4.52105,12.99375 4.008589,16.01158 12.025765,12.26491 Z"
       id="path6" /><path
       style="fill:none;stroke:#ffffff;stroke-width:0.565;stroke-linecap:butt;stroke-linejoin:miter;stroke-dasharray:none;stroke-opacity:1"
       d="m 5.056289,11.25138 c 0,0 12.313434,-7.8682901 12.617944,-7.9716301 0.464743,-0.15771 8.213354,-0.40201 8.763094,-0.19359 0.27627,0.10474 -2.41335,2.12659 -4.47697,4.0269097 -2.227982,2.05168 -4.067916,4.5878904 -4.468334,4.8215904 -0.800836,0.46739 -13.323596,-0.55975 -14.007285,0.10254 -0.683689,0.66229 -0.905057,1.03656 -0.730354,1.59442 0.175332,0.55987 0.718462,0.71504 1.514766,0.89625 m 1.414251,0.47646 c 0.752031,0.3156 0.726899,0.31709 1.103868,0.43788 2.8674488,0.91879 7.827807,2.28774 8.768789,2.16942 0.940982,-0.11832 1.663322,-0.90521 1.663322,-0.90521"
       id="path1" /><path
       style="font-size:5.37739px;font-family:'Folio Std';-inkscape-font-specification:'Folio Std';letter-spacing:0.357188px;word-spacing:0px;fill:none;stroke:#ffffff;stroke-width:0.2"
       d="m 32.749083,6.5924603 v 2.4951089 h 0.634532 V 6.5924603 Z M 33.383615,6.0869857 V 5.4416989 h -0.634532 v 0.6452868 z m 1.706917,3.0005835 V 7.6302966 c 0,-0.4033043 0.220473,-0.6829285 0.57538,-0.6829285 0.349531,0 0.478588,0.2473599 0.478588,0.5592485 v 1.5809526 h 0.634532 V 7.4420879 c 0,-0.6990607 -0.333398,-0.9571754 -0.838873,-0.9571754 -0.381794,0 -0.704438,0.1774539 -0.860382,0.5162295 h -0.01076 V 6.5924603 H 34.456 v 2.4951089 z m 2.540407,-0.7420798 v 0.010755 c 0.05377,0.6022677 0.564626,0.8388728 1.209912,0.8388728 0.435569,0 1.118497,-0.1774538 1.118497,-0.8388728 0,-1.075478 -1.602462,-0.6130224 -1.602462,-1.0969875 0,-0.2419826 0.279624,-0.3118886 0.473211,-0.3118886 0.139812,0 0.258114,0.032264 0.344152,0.096793 0.08604,0.059151 0.139813,0.1559443 0.139813,0.2796242 h 0.580758 c 0.0054,-0.5700033 -0.500098,-0.8388728 -1.053969,-0.8388728 -0.489342,0 -1.118497,0.2312278 -1.118497,0.8012311 0,1.0701006 1.602462,0.6237772 1.602462,1.1453841 0,0.1828312 -0.209718,0.3011338 -0.526984,0.3011338 -0.263492,0 -0.532361,-0.086038 -0.532361,-0.3871721 z M 40.940314,5.6998136 V 6.5924603 H 40.601538 V 7.097935 h 0.338776 v 1.075478 c 0,0.7098154 0.05377,0.9356658 0.758212,0.9356658 0.150567,0 0.295756,-0.02151 0.446323,-0.02151 V 8.5552076 c -0.08604,0.00538 -0.172076,0.016132 -0.252737,0.016132 -0.274247,0 -0.317266,-0.096793 -0.317266,-0.440946 V 7.097935 h 0.59689 V 6.5924603 h -0.59689 V 5.6998136 Z m 2.002672,0.8926467 v 2.4951089 h 0.634532 V 6.5924603 Z M 43.577518,6.0869857 V 5.4416989 h -0.634532 v 0.6452868 z m 1.1638,-0.3871721 V 6.5924603 H 44.402543 V 7.097935 h 0.338775 v 1.075478 c 0,0.7098154 0.05377,0.9356658 0.758212,0.9356658 0.150567,0 0.295757,-0.02151 0.446324,-0.02151 V 8.5552076 c -0.08604,0.00538 -0.172077,0.016132 -0.252738,0.016132 -0.274247,0 -0.317266,-0.096793 -0.317266,-0.440946 V 7.097935 h 0.596891 V 6.5924603 H 45.37585 V 5.6998136 Z m 3.648153,0.8926467 V 8.049733 c 0,0.4033042 -0.220473,0.6829285 -0.57538,0.6829285 -0.349531,0 -0.478588,-0.2473599 -0.478588,-0.5592485 V 6.5924603 h -0.634532 v 1.6454813 c 0,0.6990607 0.333398,0.9571754 0.838873,0.9571754 0.381794,0 0.704438,-0.1774538 0.860382,-0.5162294 h 0.01075 v 0.4086816 h 0.613022 V 6.5924603 Z M 50.139402,5.6998136 V 6.5924603 H 49.800626 V 7.097935 h 0.338776 v 1.075478 c 0,0.7098154 0.05377,0.9356658 0.758212,0.9356658 0.150567,0 0.295756,-0.02151 0.446323,-0.02151 V 8.5552076 c -0.08604,0.00538 -0.172076,0.016132 -0.252737,0.016132 -0.274247,0 -0.317266,-0.096793 -0.317266,-0.440946 V 7.097935 h 0.59689 V 6.5924603 h -0.59689 V 5.6998136 Z"
       id="text12"
       transform="scale(0.97850805,1.021964)"
       aria-label="institut" /><path
       style="font-weight:500;font-size:8.04126px;font-family:'Folio Std';-inkscape-font-specification:'Folio Std Medium';letter-spacing:0.383646px;word-spacing:0px;fill:none;stroke:#ffffff;stroke-width:0.3"
       d="m 23.627266,16.625118 v -2.774234 c 0,-0.747838 -0.490517,-1.117735 -1.1499,-1.117735 -0.562888,0 -0.95691,0.281444 -1.246395,0.747837 -0.176908,-0.466393 -0.498558,-0.747837 -1.013199,-0.747837 -0.546806,0 -0.932786,0.249279 -1.1499,0.747837 h -0.01608 V 12.893974 H 18.15921 v 3.731144 h 0.948868 v -2.138975 c 0,-0.530723 0.233197,-1.061446 0.731755,-1.061446 0.313609,0 0.578971,0.209073 0.578971,0.860415 v 2.340006 h 0.948868 v -2.138975 c 0,-0.530723 0.233197,-1.061446 0.731755,-1.061446 0.313609,0 0.578971,0.19299 0.578971,0.860415 v 2.340006 z m 3.157885,0.160825 c 1.198148,0 1.929902,-0.804126 1.929902,-2.026397 0,-1.238354 -0.731754,-2.026397 -1.929902,-2.026397 -1.326808,0 -1.921861,0.763919 -1.929902,2.026397 0.008,1.246395 0.603094,2.026397 1.929902,2.026397 z m -0.008,-0.691548 c -0.530723,0 -0.908663,-0.434228 -0.908663,-1.334849 0,-0.916704 0.37794,-1.350932 0.908663,-1.334849 0.546805,-0.01608 0.924745,0.418145 0.924745,1.334849 0,0.900621 -0.37794,1.334849 -0.924745,1.334849 z m 4.074582,0.530723 v -2.179181 c 0,-0.603095 0.329692,-1.02124 0.860415,-1.02124 0.522682,0 0.715672,0.369898 0.715672,0.836291 v 2.36413 h 0.948869 v -2.460625 c 0,-1.045364 -0.498558,-1.431344 -1.254437,-1.431344 -0.570929,0 -1.053405,0.265361 -1.286601,0.77196 h -0.01608 v -0.611135 h -0.916703 v 3.731144 z m 4.042418,-5.065993 v 1.334849 h -0.5066 v 0.755878 h 0.5066 v 1.608252 c 0,1.061446 0.08041,1.399179 1.133817,1.399179 0.225156,0 0.44227,-0.03216 0.667425,-0.03216 v -0.796084 c -0.12866,0.008 -0.257321,0.02412 -0.377939,0.02412 -0.410105,0 -0.474435,-0.144742 -0.474435,-0.659383 v -1.543922 h 0.89258 v -0.755878 h -0.89258 v -1.334849 z m 2.844275,1.334849 v 3.731144 h 0.948869 v -3.731144 z m 0.948869,-0.755879 v -0.964951 h -0.948869 v 0.964951 z m 1.51747,-1.254436 v 5.741459 h 0.948869 v -5.741459 z m 2.466339,2.010315 v 3.731144 h 0.948869 v -3.731144 z m 0.948869,-0.755879 v -0.964951 h -0.948869 v 0.964951 z m 2.426131,4.487023 h 0.860415 L 48.4504,12.893974 h -1.029282 l -0.932786,2.508873 H 46.47225 L 45.595752,12.893974 H 44.566471 Z M 49.3889,12.893974 v 3.731144 h 0.948868 v -3.731144 z m 0.948868,-0.755879 V 11.173144 H 49.3889 v 0.964951 z"
       id="text1"
       aria-label="montilivi" /></g></svg>
